:SAMPLES-PER-SECOND 30
:FULLY-SPECIFIED
:DEGREES
681
root  -2.92014 40.9038 1.28725 174.83 -89.3316 -176.054
RightUpLeg  4.72729 -1.00295 -0.839911
RightLeg  0.0585882 -15.9205 -0.310684
RightFoot  -2.12221 -0.2442 2.85311
RightToes  -3.10678e-008 1.75238e-005 3.56266e-009
Spine  -2.92836 -0.174772 -0.780242
Spine1  7.12992 -0.369775 0.667101
HEad  -6.18657 -7.465 -4.32555
LeftShoulder1  0.245823 1.50389 -4.3339
LeftArm  -51.8727 -6.08987 0.324633
LeftForeArm  50.7371 3.65459 5.79417
LeftHand  -0.108497 0.993816 2.86581
RightShoulder  0.0647803 -2.91424 3.06913
RightArm  -44.9411 4.04186 -1.66648
RightForeArm  26.0038 6.00984 1.26183
RightHand  0.095634 2.04164 1.3142
LeftUpLeg  4.81404 1.23129 1.46857
LeftLeg  -0.964806 14.7829 -0.677729
LeftFoot  -1.86572 0.210846 -2.42338
LeftToes  4.76857e-008 1.46588e-008 1.31384e-009
682
root  -2.91629 40.9101 1.30343 172.997 -89.3045 -174.034
RightUpLeg  4.80809 -1.07007 -0.891501
RightLeg  -0.546184 -15.855 -0.0431631
RightFoot  -1.94226 -0.237088 2.74312
RightToes  -3.10678e-008 1.75238e-005 3.56266e-009
Spine  -3.01078 -0.234186 -0.608765
Spine1  7.16799 -0.385342 0.448416
HEad  -6.47893 -6.56421 -3.26838
LeftShoulder1  0.194905 1.81526 -3.49934
LeftArm  -53.479 -7.05219 1.27445
LeftForeArm  51.3357 4.18014 7.12076
LeftHand  -0.111952 -0.787149 2.17624
RightShoulder  0.0251522 -3.26284 2.47328
RightArm  -44.9816 4.71023 -2.66112
RightForeArm  26.3874 4.53993 1.15282
RightHand  0.0859449 1.63938 1.27653
LeftUpLeg  4.67311 1.2005 1.46087
LeftLeg  -1.10869 14.854 -0.724068
LeftFoot  -1.79754 0.203195 -2.30439
LeftToes  4.76857e-008 1.46588e-008 1.31384e-009
683
root  -2.90199 40.9133 1.31815 172.901 -89.1472 -173.694
RightUpLeg  4.60121 -0.973165 -0.860857
RightLeg  -0.752435 -15.8142 -0.033048
RightFoot  -1.83091 -0.242191 2.82229
RightToes  -3.10678e-008 1.75238e-005 3.56266e-009
Spine  -3.04854 -0.125729 -0.398163
Spine1  7.00003 -0.239456 0.27491
HEad  -6.4594 -6.12525 -2.56348
LeftShoulder1  0.162825 2.01833 -2.85108
LeftArm  -53.732 -7.34023 2.32985
LeftForeArm  50.8397 4.10687 7.18442
LeftHand  -0.0762071 -0.961388 1.49736
RightShoulder  -0.00816724 -3.57853 1.53741
RightArm  -45.0192 4.72697 -3.16386
RightForeArm  26.8741 3.65609 0.961651
RightHand  0.0939698 1.37037 1.48767
LeftUpLeg  4.45387 1.18915 1.46761
LeftLeg  -1.22571 15.0348 -0.801482
LeftFoot  -1.71824 0.198432 -2.23031
LeftToes  4.76857e-008 1.46588e-008 1.31384e-009
684
root  -2.88622 40.9099 1.32101 174.524 -88.9957 -175.221
RightUpLeg  4.24824 -0.874132 -0.833851
RightLeg  -0.334744 -15.7429 -0.219926
RightFoot  -1.92409 -0.245986 2.88117
RightToes  -3.10678e-008 1.75238e-005 3.56266e-009
Spine  -2.8488 0.0154193 -0.591812
Spine1  6.70302 -0.163665 0.615235
HEad  -6.54065 -6.01467 -2.4862
LeftShoulder1  0.137022 2.21068 -2.41142
LeftArm  -54.088 -7.4141 3.04559
LeftForeArm  51.9951 4.01146 7.5376
LeftHand  -0.0389739 -1.33423 0.792445
RightShoulder  -0.0196287 -3.71342 0.996994
RightArm  -45.1033 4.64151 -3.98781
RightForeArm  27.5261 3.13328 0.826564
RightHand  0.108106 1.5997 1.65447
LeftUpLeg  4.33322 1.15622 1.43748
LeftLeg  -1.20566 15.2134 -0.791032
LeftFoot  -1.71056 0.197333 -2.21322
LeftToes  4.76857e-008 1.46588e-008 1.31384e-009
685
root  -2.8605 40.9066 1.32567 173.896 -88.781 -174.549
RightUpLeg  3.92469 -0.723923 -0.762254
RightLeg  0.0958992 -15.6351 -0.42251
RightFoot  -1.96328 -0.249391 2.93401
RightToes  -3.10678e-008 1.75238e-005 3.56266e-009
Spine  -2.40516 0.198506 -0.642863
Spine1  6.20094 -0.0356209 0.864724
HEad  -6.40553 -6.02067 -2.68444
LeftShoulder1  0.0829796 2.68812 -1.94898
LeftArm  -54.0865 -7.48628 3.21566
LeftForeArm  53.8794 3.93028 7.68728
LeftHand  -0.0841639 -1.93293 1.5088
RightShoulder  -0.0559322 -4.13025 0.466167
RightArm  -45.1213 4.66555 -4.46271
RightForeArm  27.2189 2.90341 0.845604
RightHand  0.0889754 1.3881 1.4031
LeftUpLeg  4.22765 1.17177 1.45812
LeftLeg  -1.12629 15.405 -0.768651
LeftFoot  -1.7195 0.202194 -2.28881
LeftToes  4.76857e-008 1.46588e-008 1.31384e-009
686
root  -2.83432 40.9103 1.32457 173.808 -88.6967 -174.438
RightUpLeg  3.84301 -0.675808 -0.733241
RightLeg  0.0889732 -15.5943 -0.444157
RightFoot  -1.85231 -0.252651 2.98459
RightToes  -3.10678e-008 1.75238e-005 3.56266e-009
Spine  -2.22556 0.25732 -0.555438
Spine1  5.99727 0.0431131 0.779114
HEad  -6.24432 -5.84743 -2.72445
LeftShoulder1  0.0676283 2.80762 -1.46817
LeftArm  -54.008 -7.2988 3.60458
LeftForeArm  55.0548 3.8872 7.73129
LeftHand  -0.115454 -1.77216 2.04102
RightShoulder  -0.0661468 -4.25507 0.361237
RightArm  -44.9757 4.58749 -4.99589
RightForeArm  27.4908 2.76149 0.95144
RightHand  0.130748 1.44127 2.09336
LeftUpLeg  4.19888 1.16716 1.46499
LeftLeg  -1.20796 15.5037 -0.794695
LeftFoot  -1.60345 0.194655 -2.17157
LeftToes  4.76857e-008 1.46588e-008 1.31384e-009
687
root  -2.82712 40.9171 1.32523 172.344 -89.0358 -173.042
RightUpLeg  4.15064 -0.821101 -0.807147
RightLeg  -0.335067 -15.7573 -0.236108
RightFoot  -1.72805 -0.253808 3.00255
RightToes  -3.10678e-008 1.75238e-005 3.56266e-009
Spine  -2.1771 0.135354 -0.501385
Spine1  5.93752 -0.0439892 0.624411
HEad  -6.00245 -5.55653 -2.59094
LeftShoulder1  0.0644074 2.71644 -1.27139
LeftArm  -53.7599 -7.01771 4.14514
LeftForeArm  55.6991 3.90071 7.54482
LeftHand  -0.136755 -1.45044 2.44852
RightShoulder  -0.0651862 -4.24499 0.350594
RightArm  -45.2555 4.63346 -5.24042
RightForeArm  27.439 2.38679 0.719218
RightHand  0.139631 1.61467 2.1755
LeftUpLeg  4.29833 1.1244 1.43031
LeftLeg  -1.38327 15.2259 -0.814665
LeftFoot  -1.45109 0.18532 -2.02641
LeftToes  4.76857e-008 1.46588e-008 1.31384e-009
688
root  -2.81542 40.9157 1.32632 168.432 -89.4934 -169.079
RightUpLeg  4.1409 -0.845878 -0.802923
RightLeg  -0.359254 -16.1956 -0.208978
RightFoot  -1.74087 -0.250271 2.94766
RightToes  -3.10678e-008 1.75238e-005 3.56266e-009
Spine  -2.26722 -0.0456703 -0.673536
Spine1  5.82673 -0.255735 0.780377
HEad  -5.37822 -5.23218 -2.72998
LeftShoulder1  0.0665179 2.77035 -1.17245
LeftArm  -53.6901 -7.06845 4.36395
LeftForeArm  56.3385 3.89083 7.48932
LeftHand  -0.194739 -1.88381 3.28981
RightShoulder  -0.0612075 -4.20471 0.282489
RightArm  -45.4526 4.64826 -5.32672
RightForeArm  26.9683 2.34797 0.61156
RightHand  0.148015 1.48854 2.36758
LeftUpLeg  4.07768 1.1059 1.43993
LeftLeg  -1.18484 14.8006 -0.757648
LeftFoot  -1.48814 0.186151 -2.03933
LeftToes  4.76857e-008 1.46588e-008 1.31384e-009
689
root  -2.79673 40.9047 1.32906 176.282 -89.5524 -176.96
RightUpLeg  3.83654 -0.771509 -0.816495
RightLeg  0.288335 -16.3048 -0.520436
RightFoot  -1.98739 -0.245915 2.88007
RightToes  -3.10678e-008 1.75238e-005 3.56266e-009
Spine  -2.18854 0.069899 -0.586879
Spine1  5.49933 -0.0796746 0.519399
HEad  -4.54182 -4.46459 -2.94819
LeftShoulder1  0.0703664 2.68763 -0.822031
LeftArm  -53.9541 -7.44106 4.06782
LeftForeArm  56.1433 3.86769 7.65282
LeftHand  -0.172916 -1.81363 2.95894
RightShoulder  -0.0813182 -4.43304 0.309169
RightArm  -45.5253 4.73792 -5.14817
RightForeArm  27.0896 2.36998 0.557223
RightHand  0.157558 1.62409 2.46855
LeftUpLeg  3.95271 1.08388 1.35935
LeftLeg  -0.927506 14.772 -0.716231
LeftFoot  -1.58449 0.186367 -2.04269
LeftToes  4.76857e-008 1.46588e-008 1.31384e-009
690
root  -2.74788 40.8912 1.33648 -176.075 -89.4281 175.296
RightUpLeg  3.39298 -0.654957 -0.818808
RightLeg  1.25364 -16.2598 -0.954871
RightFoot  -2.2504 -0.259261 3.08716
RightToes  -3.10678e-008 1.75238e-005 3.56266e-009
Spine  -2.00042 0.177201 -0.591577
Spine1  5.40903 0.0419813 0.458779
HEad  -3.79771 -3.77233 -2.97094
LeftShoulder1  0.0723601 2.72286 -0.919682
LeftArm  -53.5569 -7.63612 4.07575
LeftForeArm  55.1044 3.98516 7.17288
LeftHand  -0.182116 -1.53577 3.20437
RightShoulder  -0.0779013 -4.40224 0.2196
RightArm  -45.4982 4.81303 -4.91492
RightForeArm  27.0591 2.2439 0.544852
RightHand  0.161299 1.79224 2.45381
LeftUpLeg  3.85681 1.0124 1.23814
LeftLeg  -0.630139 14.9587 -0.600657
LeftFoot  -1.68266 0.187668 -2.06291
LeftToes  4.76857e-008 1.46588e-008 1.31384e-009
